<svg id="Layer_1" data-name="Layer 1" xmlns="http://www.w3.org/2000/svg" viewBox="0 0 9022.97 6350.06"><defs><style>.cls-1,.cls-4{fill:none;stroke-linecap:round;stroke-linejoin:round;stroke-width:183.6px;}.cls-1{stroke:#fff;}.cls-2,.cls-3{fill:#fff;}.cls-3,.cls-5{font-size:864px;font-family:BERNIERRegular-Regular, BERNIER Regular;letter-spacing:0.15em;}.cls-4{stroke:#000;}</style></defs><title>logo</title><path class="cls-1" d="M4734.45,4545.84s319.63,259.07,841.8,113.67A40.77,40.77,0,0,1,5628,4700.2c-4.28,118.68-6.39,399.89,54.31,629.56,11.4,43.12,74,38.94,79.81-5.29C5811.79,4945,5962,4027.1,6288.33,3664.77c27.07-30.05,76.63-7.18,70.87,32.85-35.58,247.24-114.44,845.48-106.12,1238.22,1,47.1,67.78,55.31,80.12,9.83,68.77-253.62,191.28-659.9,326.43-896.13,22.87-40,84.09-17,75.34,28.17-35,180.91-72.87,462-24.19,668.79,9.22,39.16,63.69,42.63,77.84,5,52.82-140.54,155.41-385.36,275.65-527.22,26.14-30.83,76.46-8.85,71.57,31.27-18,147.61-29.69,401,79,517.12,158.4,169.2,701.52-58.81,720.6,35.38a40.69,40.69,0,0,1-4.85,28.78c-51,86.64-316.38,600.83-516-1.16" transform="translate(703.97 -154.21)"/><text x="703.97" y="-154.21"/><circle class="cls-2" cx="8902.97" cy="4773.79" r="120"/><path class="cls-1" d="M250.45,4908.84s319.63,259.07,841.8,113.67A40.77,40.77,0,0,1,1144,5063.2c-4.28,118.68-6.39,399.89,54.31,629.56,11.4,43.12,74,38.94,79.81-5.29C1327.79,5308,1478,4390.1,1804.33,4027.77c27.07-30.05,76.63-7.18,70.87,32.85-35.58,247.24-114.44,845.48-106.12,1238.22,1,47.1,67.78,55.31,80.12,9.83,68.77-253.62,191.28-659.9,326.43-896.13,22.87-40,84.09-17,75.34,28.17-35,180.91-72.87,462-24.19,668.79,9.22,39.16,63.69,42.63,77.84,5,52.82-140.54,155.41-385.36,275.65-527.22,26.14-30.83,76.46-8.85,71.57,31.27-18,147.61-29.69,401,79,517.12,158.4,169.2,701.52-58.81,720.6,35.38a40.69,40.69,0,0,1-4.85,28.78c-51,86.64-316.38,600.83-515.95-1.16" transform="translate(703.97 -154.21)"/><circle class="cls-2" cx="4418.97" cy="5136.79" r="120"/><text class="cls-3" transform="translate(5667.27 6133.19)">gabriel</text><path class="cls-4" d="M4734.45,1140.84s319.63,259.07,841.8,113.67A40.77,40.77,0,0,1,5628,1295.2c-4.28,118.68-6.39,399.89,54.31,629.56,11.4,43.12,74,38.94,79.81-5.29C5811.79,1540,5962,622.1,6288.33,259.77c27.07-30,76.63-7.18,70.87,32.85-35.58,247.24-114.44,845.48-106.12,1238.22,1,47.1,67.78,55.31,80.12,9.83,68.77-253.62,191.28-659.9,326.43-896.13,22.87-40,84.09-17,75.34,28.17-35,180.91-72.87,462-24.19,668.79,9.22,39.16,63.69,42.63,77.84,5,52.82-140.54,155.41-385.36,275.65-527.22,26.14-30.83,76.46-8.85,71.57,31.27-18,147.61-29.69,401,79,517.12,158.4,169.2,701.52-58.81,720.6,35.38a40.69,40.69,0,0,1-4.85,28.78c-51,86.64-316.38,600.83-516-1.16" transform="translate(703.97 -154.21)"/><circle cx="8902.97" cy="1368.79" r="120"/><path class="cls-4" d="M250.45,1503.84s319.63,259.07,841.8,113.67A40.77,40.77,0,0,1,1144,1658.2c-4.28,118.68-6.39,399.89,54.31,629.56,11.4,43.12,74,38.94,79.81-5.29C1327.79,1903,1478,985.1,1804.33,622.77c27.07-30,76.63-7.18,70.87,32.85-35.58,247.24-114.44,845.48-106.12,1238.22,1,47.1,67.78,55.31,80.12,9.83,68.77-253.62,191.28-659.9,326.43-896.13,22.87-40,84.09-17,75.34,28.17-35,180.91-72.87,462-24.19,668.79,9.22,39.16,63.69,42.63,77.84,5,52.82-140.54,155.41-385.36,275.65-527.22,26.14-30.83,76.46-8.85,71.57,31.27-18,147.61-29.69,401,79,517.12,158.4,169.2,701.52-58.81,720.6,35.38a40.69,40.69,0,0,1-4.85,28.78c-51,86.64-316.38,600.83-515.95-1.16" transform="translate(703.97 -154.21)"/><circle cx="4418.97" cy="1731.79" r="120"/><text class="cls-5" transform="translate(5667.27 2728.19)">gabriel</text></svg>